<svg width="42" height="17" viewBox="0 0 42 17" fill="none" xmlns="http://www.w3.org/2000/svg">
<path d="M6.40625 0.812508H17.9453C18.4557 0.830737 18.875 1.02214 19.2031 1.38673C19.5495 1.75131 19.7227 2.18881 19.7227 2.69923C19.6315 3.79298 19.0391 4.38542 17.9453 4.47657H7.33594C6.64323 4.51303 6.06901 4.77735 5.61328 5.26954C5.15755 5.76173 4.82031 6.32683 4.60156 6.96485C4.40104 7.58464 4.30078 8.22266 4.30078 8.87891C4.30078 9.53516 4.40104 10.1823 4.60156 10.8203C4.82031 11.4401 5.15755 11.9961 5.61328 12.4883C6.06901 12.9805 6.64323 13.2448 7.33594 13.2813H15.6484C15.9766 13.263 16.1497 13.0807 16.168 12.7344V11.1484C16.1497 10.7839 15.9766 10.6016 15.6484 10.6016H8.64844C8.13802 10.6016 7.70052 10.4284 7.33594 10.082C6.98958 9.71746 6.81641 9.27996 6.81641 8.76954C6.81641 8.25912 6.98958 7.82162 7.33594 7.45704C7.70052 7.11068 8.13802 6.93751 8.64844 6.93751H18C18.5104 6.93751 18.9479 7.11068 19.3125 7.45704C19.6406 7.80339 19.8138 8.22266 19.832 8.71485V8.76954V15.168C19.8138 15.6602 19.6406 16.0703 19.3125 16.3984C18.9661 16.7448 18.5469 16.9271 18.0547 16.9453H6.40625C5.13021 16.8724 4.07292 16.3893 3.23438 15.4961C2.41406 14.5846 1.82161 13.5547 1.45703 12.4063C1.11068 11.2578 0.9375 10.082 0.9375 8.87891C0.9375 7.67579 1.11979 6.50001 1.48438 5.35157C1.84896 4.20313 2.44141 3.1823 3.26172 2.28907C4.08203 1.37761 5.13021 0.885424 6.40625 0.812508ZM28.418 0.812508H39.957C40.4674 0.830737 40.8867 1.02214 41.2148 1.38673C41.5612 1.75131 41.7344 2.18881 41.7344 2.69923C41.6432 3.79298 41.0508 4.38542 39.957 4.47657H29.3477C28.6549 4.51303 28.0807 4.77735 27.625 5.26954C27.1693 5.76173 26.832 6.32683 26.6133 6.96485C26.4128 7.58464 26.3125 8.22266 26.3125 8.87891C26.3125 9.53516 26.4128 10.1823 26.6133 10.8203C26.832 11.4401 27.1693 11.9961 27.625 12.4883C28.0807 12.9805 28.6549 13.2448 29.3477 13.2813H37.6602C37.9883 13.263 38.1615 13.0807 38.1797 12.7344V11.1484C38.1615 10.7839 37.9883 10.6016 37.6602 10.6016H30.6602C30.1497 10.6016 29.7122 10.4284 29.3477 10.082C29.0013 9.71746 28.8281 9.27996 28.8281 8.76954C28.8281 8.25912 29.0013 7.82162 29.3477 7.45704C29.7122 7.11068 30.1497 6.93751 30.6602 6.93751H40.0117C40.5221 6.93751 40.9596 7.11068 41.3242 7.45704C41.6523 7.80339 41.8255 8.22266 41.8438 8.71485V8.76954V15.168C41.8255 15.6602 41.6523 16.0703 41.3242 16.3984C40.9779 16.7448 40.5586 16.9271 40.0664 16.9453H28.418C27.1419 16.8724 26.0846 16.3893 25.2461 15.4961C24.4258 14.5846 23.8333 13.5547 23.4688 12.4063C23.1224 11.2578 22.9492 10.082 22.9492 8.87891C22.9492 7.67579 23.1315 6.50001 23.4961 5.35157C23.8607 4.20313 24.4531 3.1823 25.2734 2.28907C26.0938 1.37761 27.1419 0.885424 28.418 0.812508Z" fill="#0D2612"/>
</svg>
