<svg width="19" height="14" viewBox="0 0 19 14" fill="none" xmlns="http://www.w3.org/2000/svg">
<path d="M4.7405 3.75L4.54325 2.2035C4.47163 1.59652 4.17978 1.03692 3.72305 0.630778C3.26632 0.224639 2.67644 0.000196407 2.06525 0L0.5 0V2.25H2.06525C2.12661 2.25066 2.18554 2.27401 2.23069 2.31556C2.27584 2.35711 2.30401 2.41391 2.30975 2.475L3.43475 11.2943C3.50571 11.9017 3.79728 12.4619 4.2541 12.8686C4.71092 13.2752 5.30117 13.4999 5.91275 13.5H15.8L18.4805 3.75H4.7405ZM14.084 11.25H5.91275C5.85143 11.2495 5.79249 11.2262 5.74743 11.1846C5.70236 11.143 5.6744 11.0861 5.669 11.025L5.02775 6H15.5278L14.084 11.25Z" fill="#0D2612"/>
</svg>
