<svg width="17" height="17" viewBox="0 0 17 17" fill="none" xmlns="http://www.w3.org/2000/svg">
<path d="M13.3055 12.1845C14.3698 10.7621 14.8559 8.9893 14.6657 7.22298C14.4755 5.45666 13.6233 3.82795 12.2806 2.6647C10.9379 1.50145 9.20433 0.890041 7.42894 0.953536C5.65355 1.01703 3.96812 1.75072 2.71192 3.00692C1.45573 4.26311 0.722041 5.94854 0.658546 7.72393C0.595051 9.49932 1.20646 11.2329 2.36971 12.5756C3.53296 13.9183 5.16167 14.7705 6.92799 14.9607C8.69431 15.1508 10.4671 14.6648 11.8895 13.6005L15.2895 17.0005L16.7055 15.5871L13.3055 12.1845ZM7.70548 13.0005C6.71658 13.0005 5.74988 12.7072 4.92763 12.1578C4.10539 11.6084 3.46452 10.8275 3.08608 9.91389C2.70765 9.00026 2.60863 7.99493 2.80156 7.02502C2.99448 6.05512 3.47069 5.1642 4.16995 4.46494C4.86921 3.76568 5.76013 3.28947 6.73003 3.09655C7.69994 2.90362 8.70527 3.00264 9.6189 3.38108C10.5325 3.75951 11.3134 4.40038 11.8628 5.22262C12.4122 6.04487 12.7055 7.01157 12.7055 8.00047C12.7042 9.32618 12.1771 10.5972 11.2397 11.5346C10.3022 12.4721 9.03119 12.9992 7.70548 13.0005Z" fill="#0D2612"/>
</svg>
