<svg width="30" height="30" viewBox="0 0 30 30" fill="none" xmlns="http://www.w3.org/2000/svg">
<rect width="30" height="30" rx="5" fill="#D5F8CF"/>
<g clip-path="url(#clip0_1_657)">
<path d="M20.3829 6.43044L12.1076 6.42471L5.29814 16.8106C4.94599 17.3477 4.79126 17.9828 4.868 18.5762C4.94475 19.1696 5.24667 19.6726 5.70736 19.9746L13.8135 25.2894C14.2742 25.5914 14.8559 25.6677 15.4306 25.5015C16.0054 25.3353 16.5261 24.9401 16.8783 24.403L23.6877 14.0172L20.3829 6.43044ZM7.03516 17.9495L13.0674 8.74899L18.8599 8.75334L21.1735 14.0637L15.1413 23.2642L7.03516 17.9495Z" fill="#0BA42D"/>
<path d="M15.7357 13.5186C16.2153 13.8331 16.9014 13.6347 17.2681 13.0755C17.6347 12.5162 17.5431 11.8079 17.0635 11.4934C16.5838 11.179 15.8977 11.3774 15.531 11.9366C15.1644 12.4959 15.256 13.2042 15.7357 13.5186Z" fill="#0BA42D"/>
</g>
<path d="M15.6599 12.9142C22.0296 10.1448 22.6989 6.4522 22.2373 4.95209" stroke="#0BA42D"/>
<defs>
<clipPath id="clip0_1_657">
<rect width="16.6167" height="19.3734" fill="white" transform="translate(13.4348 1.875) rotate(33.2506)"/>
</clipPath>
</defs>
</svg>
