<svg width="26" height="21" viewBox="0 0 26 21" fill="none" xmlns="http://www.w3.org/2000/svg">
<g clip-path="url(#clip0_1_601)">
<path d="M5.3719 21.0004C6.10828 21.0004 6.70524 20.4035 6.70524 19.6671C6.70524 18.9307 6.10828 18.3338 5.3719 18.3338C4.63553 18.3338 4.03857 18.9307 4.03857 19.6671C4.03857 20.4035 4.63553 21.0004 5.3719 21.0004Z" fill="#0D2612"/>
<path d="M12.0387 21.0004C12.775 21.0004 13.372 20.4035 13.372 19.6671C13.372 18.9307 12.775 18.3338 12.0387 18.3338C11.3023 18.3338 10.7053 18.9307 10.7053 19.6671C10.7053 20.4035 11.3023 21.0004 12.0387 21.0004Z" fill="#0D2612"/>
<path d="M4.47466 8.33334L4.29932 6.95867C4.23566 6.41914 3.97624 5.92171 3.57026 5.5607C3.16427 5.19969 2.63994 5.00018 2.09666 5.00001H0.705322V7.00001H2.09666C2.15119 7.00059 2.20358 7.02135 2.24372 7.05829C2.28385 7.09522 2.30888 7.14571 2.31399 7.20001L3.31399 15.0393C3.37706 15.5793 3.63624 16.0773 4.0423 16.4387C4.44836 16.8002 4.97303 16.9999 5.51666 17H14.3053L16.688 8.33334H4.47466ZM12.78 15H5.51666C5.46215 14.9996 5.40976 14.9788 5.3697 14.9418C5.32964 14.9049 5.30479 14.8543 5.29999 14.8L4.72999 10.3333H14.0633L12.78 15Z" fill="#0D2612"/>
</g>
<circle cx="18.2053" cy="7.00001" r="7" fill="#0BA42D"/>
<path d="M19.444 4.18183V10H17.8644V5.63637H17.8303L16.5576 6.39773V5.05683L17.9894 4.18183H19.444Z" fill="white"/>
<defs>
<clipPath id="clip0_1_601">
<rect width="16" height="16" fill="white" transform="translate(0.705322 5.00001)"/>
</clipPath>
</defs>
</svg>
