<svg width="19" height="18" viewBox="0 0 19 18" fill="none" xmlns="http://www.w3.org/2000/svg">
<g clip-path="url(#clip0_1_169)">
<path d="M16.25 18.0005H14V14.2505C14 13.8526 13.842 13.4711 13.5607 13.1898C13.2794 12.9085 12.8978 12.7505 12.5 12.7505H6.5C6.10218 12.7505 5.72064 12.9085 5.43934 13.1898C5.15804 13.4711 5 13.8526 5 14.2505V18.0005H2.75V14.2505C2.75119 13.2563 3.14666 12.3031 3.84966 11.6001C4.55267 10.8971 5.5058 10.5016 6.5 10.5005H12.5C13.4942 10.5016 14.4473 10.8971 15.1503 11.6001C15.8533 12.3031 16.2488 13.2563 16.25 14.2505V18.0005Z" fill="#0D2612"/>
<path d="M9.5 8.99996C8.60999 8.99996 7.73996 8.73604 6.99994 8.24157C6.25991 7.7471 5.68314 7.0443 5.34254 6.22203C5.00195 5.39976 4.91283 4.49496 5.08647 3.62205C5.2601 2.74914 5.68869 1.94731 6.31802 1.31798C6.94736 0.688639 7.74918 0.260056 8.6221 0.0864225C9.49501 -0.087211 10.3998 0.00190401 11.2221 0.342498C12.0443 0.683093 12.7471 1.25987 13.2416 1.99989C13.7361 2.73991 14 3.60994 14 4.49996C13.9988 5.69307 13.5243 6.83697 12.6807 7.68062C11.837 8.52428 10.6931 8.99876 9.5 8.99996ZM9.5 2.24996C9.05499 2.24996 8.61998 2.38192 8.24997 2.62915C7.87996 2.87638 7.59157 3.22778 7.42127 3.63892C7.25098 4.05005 7.20642 4.50245 7.29324 4.93891C7.38005 5.37537 7.59434 5.77628 7.90901 6.09095C8.22368 6.40561 8.62459 6.61991 9.06105 6.70672C9.49751 6.79354 9.94991 6.74898 10.361 6.57869C10.7722 6.40839 11.1236 6.12 11.3708 5.74999C11.618 5.37998 11.75 4.94496 11.75 4.49996C11.75 3.90322 11.5129 3.33092 11.091 2.90897C10.669 2.48701 10.0967 2.24996 9.5 2.24996Z" fill="#0D2612"/>
</g>
<defs>
<clipPath id="clip0_1_169">
<rect width="18" height="18" fill="white" transform="translate(0.5)"/>
</clipPath>
</defs>
</svg>
