<svg width="11" height="12" viewBox="0 0 11 12" fill="none" xmlns="http://www.w3.org/2000/svg">
<g clip-path="url(#clip0_1_652)">
<path d="M5.5 11.5C4.41221 11.5 3.34884 11.1774 2.44437 10.5731C1.5399 9.96874 0.834947 9.10976 0.418665 8.10476C0.00238307 7.09977 -0.106535 5.9939 0.105683 4.92701C0.317902 3.86011 0.841726 2.8801 1.61092 2.11092C2.3801 1.34173 3.36011 0.817902 4.42701 0.605683C5.4939 0.393465 6.59977 0.502383 7.60476 0.918665C8.60976 1.33495 9.46874 2.0399 10.0731 2.94437C10.6774 3.84884 11 4.91221 11 6C10.9984 7.45821 10.4185 8.85624 9.38735 9.88735C8.35624 10.9185 6.95821 11.4984 5.5 11.5ZM5.5 1.875C4.68415 1.875 3.88663 2.11693 3.20828 2.57019C2.52992 3.02345 2.00121 3.66769 1.689 4.42143C1.37679 5.17518 1.2951 6.00458 1.45426 6.80475C1.61343 7.60492 2.0063 8.33993 2.58319 8.91682C3.16008 9.49371 3.89508 9.88658 4.69526 10.0457C5.49543 10.2049 6.32483 10.1232 7.07857 9.81101C7.83232 9.49879 8.47655 8.97008 8.92982 8.29173C9.38308 7.61338 9.625 6.81585 9.625 6C9.62379 4.90636 9.1888 3.85785 8.41548 3.08453C7.64215 2.3112 6.59365 1.87622 5.5 1.875Z" fill="#0D2612"/>
<path d="M6.1875 2.93762H4.8125V6.98746H6.1875V2.93762Z" fill="#0D2612"/>
<path d="M6.21729 7.83069H4.84229V9.20569H6.21729V7.83069Z" fill="#0D2612"/>
</g>
<defs>
<clipPath id="clip0_1_652">
<rect width="11" height="11" fill="white" transform="translate(0 0.5)"/>
</clipPath>
</defs>
</svg>
