<svg width="18" height="13" viewBox="0 0 18 13" fill="none" xmlns="http://www.w3.org/2000/svg">
<path d="M1.40227 0.357117H10.4748C10.8467 0.357117 11.2034 0.510305 11.4664 0.782981C11.7294 1.05566 11.8771 1.42549 11.8771 1.81111V1.94357H15.7965C15.939 1.94428 16.0785 1.98603 16.1995 2.06417C16.3205 2.14231 16.4181 2.25376 16.4816 2.38609L17.9187 5.42653C17.9711 5.53501 17.9989 5.65443 18 5.77573V10.4869C18 10.6466 17.9388 10.7997 17.8299 10.9126C17.721 11.0255 17.5734 11.089 17.4194 11.089H16.6326C16.5441 11.6237 16.2762 12.1088 15.8761 12.4585C15.4761 12.8082 14.9697 13 14.4465 13C13.9232 13 13.4168 12.8082 13.0168 12.4585C12.6167 12.1088 12.3488 11.6237 12.2603 11.089H6.16356C6.07509 11.6237 5.80715 12.1088 5.40711 12.4585C5.00706 12.8082 4.50067 13 3.97743 13C3.45419 13 2.9478 12.8082 2.54775 12.4585C2.14771 12.1088 1.87977 11.6237 1.7913 11.089H0.783884C0.57848 11.089 0.381266 11.0054 0.234673 10.8563C0.0880775 10.7071 0.0038166 10.5042 1.33514e-05 10.2912V1.81713C-0.000751495 1.62568 0.0349541 1.43596 0.105082 1.25886C0.175209 1.08176 0.278379 0.920762 0.408667 0.785108C0.538954 0.649454 0.693796 0.541815 0.864305 0.468369C1.03481 0.394922 1.21763 0.357115 1.40227 0.357117ZM15.5468 3.15372H11.8771V5.12549H16.4816L15.5468 3.15372ZM14.4465 11.7964C14.6569 11.797 14.8627 11.7328 15.0379 11.612C15.2131 11.4911 15.3497 11.3191 15.4305 11.1176C15.5113 10.9162 15.5326 10.6944 15.4917 10.4804C15.4507 10.2664 15.3495 10.0698 15.2007 9.91555C15.0519 9.76128 14.8623 9.65628 14.6559 9.61387C14.4496 9.57145 14.2357 9.59352 14.0414 9.67729C13.8471 9.76105 13.6812 9.90273 13.5646 10.0844C13.4481 10.266 13.3862 10.4795 13.3868 10.6976C13.3875 10.9888 13.4994 11.2678 13.698 11.4737C13.8966 11.6796 14.1656 11.7956 14.4465 11.7964ZM14.4465 8.39171C14.8997 8.39272 15.3417 8.53746 15.7133 8.80651C16.0849 9.07557 16.3682 9.45605 16.5252 9.89688H16.8387V6.32963H11.8771V9.88484H12.3677C12.5257 9.44513 12.8094 9.06594 13.1809 8.79802C13.5524 8.5301 13.9939 8.38624 14.4465 8.38569V8.39171ZM3.98033 11.7964C4.19074 11.797 4.39658 11.7328 4.57176 11.612C4.74695 11.4911 4.88359 11.3191 4.96437 11.1176C5.04516 10.9162 5.06644 10.6944 5.02554 10.4804C4.98463 10.2664 4.88337 10.0698 4.73459 9.91555C4.58581 9.76128 4.39621 9.65628 4.18982 9.61387C3.98343 9.57145 3.76954 9.59352 3.57526 9.67729C3.38098 9.76105 3.21506 9.90273 3.09852 10.0844C2.98199 10.266 2.92008 10.4795 2.92066 10.6976C2.92142 10.9888 3.03331 11.2678 3.23188 11.4737C3.43044 11.6796 3.69952 11.7956 3.98033 11.7964ZM1.1613 9.88484H1.90162C2.05891 9.44419 2.34258 9.06407 2.71448 8.79561C3.08637 8.52715 3.52864 8.38324 3.98178 8.38324C4.43493 8.38324 4.8772 8.52715 5.24909 8.79561C5.62098 9.06407 5.90466 9.44419 6.06194 9.88484H10.7071V1.81713C10.7063 1.75111 10.6807 1.68801 10.6357 1.64132C10.5907 1.59463 10.5298 1.56805 10.4661 1.56727H1.40227C1.3386 1.56805 1.27774 1.59463 1.23271 1.64132C1.18769 1.68801 1.16206 1.75111 1.1613 1.81713V9.88484Z" fill="#0D2612"/>
</svg>
